<?xml version="1.0" encoding="UTF-8" standalone="no"?>
<!-- Created with Inkscape (http://www.inkscape.org/) -->
<svg
   xmlns:dc="http://purl.org/dc/elements/1.1/"
   xmlns:cc="http://creativecommons.org/ns#"
   xmlns:rdf="http://www.w3.org/1999/02/22-rdf-syntax-ns#"
   xmlns:svg="http://www.w3.org/2000/svg"
   xmlns="http://www.w3.org/2000/svg"
   xmlns:xlink="http://www.w3.org/1999/xlink"
   xmlns:sodipodi="http://sodipodi.sourceforge.net/DTD/sodipodi-0.dtd"
   xmlns:inkscape="http://www.inkscape.org/namespaces/inkscape"
   width="744.09448819"
   height="1052.3622047"
   id="svg2449"
   sodipodi:version="0.32"
   inkscape:version="0.46"
   sodipodi:docname="union.svg"
   inkscape:output_extension="org.inkscape.output.svg.inkscape"
   inkscape:export-filename="/home/andreas/Pics/union.png"
   inkscape:export-xdpi="50"
   inkscape:export-ydpi="50">
  <defs
     id="defs2451">
    <inkscape:perspective
       sodipodi:type="inkscape:persp3d"
       inkscape:vp_x="0 : 526.18109 : 1"
       inkscape:vp_y="0 : 1000 : 0"
       inkscape:vp_z="744.09448 : 526.18109 : 1"
       inkscape:persp3d-origin="372.04724 : 350.78739 : 1"
       id="perspective2457" />
  </defs>
  <sodipodi:namedview
     id="base"
     pagecolor="#ffffff"
     bordercolor="#666666"
     borderopacity="1.0"
     gridtolerance="10000"
     guidetolerance="10"
     objecttolerance="10"
     inkscape:pageopacity="0.0"
     inkscape:pageshadow="2"
     inkscape:zoom="0.35"
     inkscape:cx="375"
     inkscape:cy="520"
     inkscape:document-units="px"
     inkscape:current-layer="layer1"
     showgrid="false"
     inkscape:window-width="640"
     inkscape:window-height="648"
     inkscape:window-x="632"
     inkscape:window-y="0" />
  <metadata
     id="metadata2454">
    <rdf:RDF>
      <cc:Work
         rdf:about="">
        <dc:format>image/svg+xml</dc:format>
        <dc:type
           rdf:resource="http://purl.org/dc/dcmitype/StillImage" />
      </cc:Work>
    </rdf:RDF>
  </metadata>
  <g
     inkscape:label="Layer 1"
     inkscape:groupmode="layer"
     id="layer1">
    <path
       sodipodi:type="inkscape:offset"
       inkscape:radius="0"
       inkscape:original="M 335.46875 65.03125 C 329.40917 65.031253 325.23384 68.36889 321.625 73.84375 C 319.33505 77.317749 123.9296 421.40712 117.6875 432.21875 C 115.69104 435.67673 113.71889 443.60101 117 449.78125 C 120.2741 455.94828 131.47858 456.84375 136.03125 456.84375 C 152.89646 456.84376 530.74128 456.6358 538.0625 456.78125 C 543.62573 456.88813 548.73178 453.86941 551.78125 448.28125 C 554.4446 443.40065 553.48787 435.97435 550.4375 431.09375 C 546.68749 425.09374 351.20994 76.20103 349.03125 72.75 C 345.1191 66.553199 342.02832 65.03125 335.46875 65.03125 z "
       xlink:href="#path3177"
       style="fill:#ff9c00;fill-opacity:1;stroke:#ffff31;stroke-width:8.20300007;stroke-linejoin:miter;stroke-miterlimit:4;stroke-dasharray:none;stroke-opacity:1"
       id="path3227"
       inkscape:href="#path3177"
       d="M 221.15625,10.75 C 215.09669,10.75 210.92134,14.08764 207.3125,19.5625 C 205.02257,23.0365 9.648349,367.12587 3.40625,377.9375 C 1.4097911,381.39548 -0.56236402,389.28851 2.71875,395.46875 C 5.992851,401.63578 17.197329,402.5625 21.75,402.5625 C 38.615218,402.5625 416.42878,402.35455 423.75,402.5 C 429.31323,402.60688 434.41928,399.58816 437.46875,394 C 440.1321,389.1194 439.17537,381.6931 436.125,376.8125 C 432.37499,370.81251 236.89744,21.91978 234.71875,18.46875 C 230.80662,12.27195 227.71582,10.75 221.15625,10.75 z" />
    <path
       style="fill:#ff9c00;fill-opacity:1;stroke:#ffff31;stroke-width:8.20300007;stroke-linejoin:miter;stroke-miterlimit:4;stroke-dasharray:none;stroke-opacity:1"
       d="M 117.69211,432.21525 C 115.69565,435.67322 113.71842,443.58737 116.99953,449.76761 C 120.27363,455.93464 131.47844,456.83869 136.03111,456.83869 C 152.89632,456.83869 530.72919,456.65034 538.05041,456.79579 C 543.61365,456.90266 548.71969,453.88395 551.76916,448.29579 C 554.43252,443.41518 553.47578,435.97327 550.42541,431.09267 C 546.67541,425.09267 351.19785,76.215571 349.01916,72.764541 C 345.10702,66.567741 342.01623,65.035381 335.45666,65.035381 C 329.39709,65.035381 325.22175,68.383431 321.61291,73.858291 C 319.32297,77.332291 123.93421,421.40362 117.69211,432.21525 z"
       id="path3177"
       sodipodi:nodetypes="csssszssss" />
    <path
       style="fill:#000000;fill-opacity:1;stroke:none;stroke-width:8.20300007;stroke-linejoin:miter;stroke-miterlimit:4;stroke-opacity:1"
       d="M 354.2914,429.8836 C 354.2914,429.8836 368.62715,398.00139 376.40532,393.75875 C 385.29334,388.91074 398.17267,360.91709 430.69958,342.53231 C 437.30368,338.79956 451.38294,340.3453 450.79732,336.83159 C 450.79732,336.83159 466.66517,362.03196 466.66517,362.03196 C 466.66517,362.03196 481.42089,396.18466 481.42089,396.18466 C 494.89562,402.59176 509.782,429.44711 507.27116,430.45145 C 500.20009,433.27988 453.33506,425.93696 430.78129,430.16753 C 385.5569,438.65059 354.00441,429.99398 354.2914,429.8836 z"
       id="path2415"
       sodipodi:nodetypes="cssscccsc" />
    <path
       style="fill:#000000;fill-opacity:1;stroke:none;stroke-width:8.20300007;stroke-linejoin:miter;stroke-miterlimit:4;stroke-opacity:1"
       d="M 391.5699,361.63349 C 391.5699,361.63349 352.94153,274.90595 352.94153,274.90595 C 351.71542,272.15311 356.20164,269.99819 357.48601,272.88185 C 357.48601,272.88185 396.11439,359.60938 396.11439,359.60938 C 404.76044,355.75844 411.3072,352.84252 411.3072,352.84252 C 416.34794,364.15988 425.78661,377.54986 408.0832,392.59513 C 385.05737,395.69062 381.76375,379.56365 376.723,368.24628 C 376.723,368.24628 382.92386,365.48443 391.5699,361.63349 z"
       id="path2395"
       sodipodi:nodetypes="cssccccc" />
    <path
       sodipodi:type="arc"
       style="fill:#000000;fill-opacity:1;stroke:none;stroke-width:8.20300007;stroke-linejoin:miter;stroke-miterlimit:4;stroke-dasharray:none;stroke-opacity:1"
       id="path2473"
       sodipodi:cx="603.16205"
       sodipodi:cy="617.49152"
       sodipodi:rx="58.689861"
       sodipodi:ry="58.689861"
       d="M 661.85191,617.49152 A 58.689861,58.689861 0 1 1 544.47219,617.49152 A 58.689861,58.689861 0 1 1 661.85191,617.49152 z"
       transform="matrix(0.4271171,4.9046107e-2,-4.9046107e-2,0.4271171,111.76788,-77.002186)" />
    <rect
       style="fill:#000000;fill-opacity:1;stroke:none;stroke-width:8.20300007;stroke-linejoin:miter;stroke-miterlimit:4;stroke-dasharray:none;stroke-opacity:1"
       id="rect2475"
       width="88.154808"
       height="42.171623"
       x="216.05634"
       y="-381.58893"
       transform="matrix(-0.1140809,0.9934715,-0.9934715,-0.1140809,0,0)"
       ry="21.085812" />
    <rect
       style="fill:#000000;fill-opacity:1;stroke:none;stroke-width:8.20300007;stroke-linejoin:miter;stroke-miterlimit:4;stroke-dasharray:none;stroke-opacity:1"
       id="rect2477"
       width="22.707798"
       height="59.689079"
       x="68.26326"
       y="424.37549"
       ry="11.353899"
       transform="matrix(0.7417571,-0.6706687,0.6706687,0.7417571,0,0)" />
    <rect
       style="fill:#000000;fill-opacity:1;stroke:none;stroke-width:8.20300007;stroke-linejoin:miter;stroke-miterlimit:4;stroke-dasharray:none;stroke-opacity:1"
       id="rect2479"
       width="22.707796"
       height="60.337864"
       x="398.80762"
       y="29.714705"
       ry="11.353898"
       transform="matrix(0.8264649,0.5629883,-0.5629883,0.8264649,0,0)"
       inkscape:transform-center-y="-14.50254"
       inkscape:transform-center-x="-1.6653487" />
    <rect
       style="fill:#000000;fill-opacity:1;stroke:none;stroke-width:8.20300007;stroke-linejoin:miter;stroke-miterlimit:4;stroke-dasharray:none;stroke-opacity:1"
       id="rect2481"
       width="22.707796"
       height="59.68906"
       x="131.46335"
       y="-403.51028"
       ry="11.353898"
       transform="matrix(-0.4247496,0.9053109,-0.9053109,-0.4247496,0,0)" />
    <rect
       style="fill:#000000;fill-opacity:1;stroke:none;stroke-width:8.20300007;stroke-linejoin:miter;stroke-miterlimit:4;stroke-dasharray:none;stroke-opacity:1"
       id="rect2483"
       width="22.707796"
       height="59.689072"
       x="468.52286"
       y="-38.874153"
       ry="11.353898"
       inkscape:transform-center-x="4.3561369"
       transform="matrix(0.7460185,0.6659252,-0.6659252,0.7460185,0,0)"
       inkscape:transform-center-y="-3.8884437" />
    <g
       id="g2487"
       transform="matrix(0.2173391,2.4957181e-2,-2.4957181e-2,0.2173391,119.57838,198.5234)">
      <rect
         y="260.48718"
         x="570.57782"
         height="22.000002"
         width="139.04494"
         id="rect2489"
         style="fill:#000000;fill-opacity:1;stroke:none;stroke-width:8.20300007;stroke-linejoin:miter;stroke-miterlimit:4;stroke-dasharray:none;stroke-opacity:1" />
      <rect
         y="260.48718"
         x="559.02765"
         height="22.000002"
         width="7.0449467"
         id="rect2491"
         style="fill:#000000;fill-opacity:1;stroke:none;stroke-width:8.20300007;stroke-linejoin:miter;stroke-miterlimit:4;stroke-dasharray:none;stroke-opacity:1" />
      <rect
         y="260.48718"
         x="547.47748"
         height="22.000002"
         width="7.0449467"
         id="rect2493"
         style="fill:#000000;fill-opacity:1;stroke:none;stroke-width:8.20300007;stroke-linejoin:miter;stroke-miterlimit:4;stroke-dasharray:none;stroke-opacity:1" />
    </g>
    <g
       id="g2515"
       transform="matrix(-0.9722309,-0.2340239,-0.2340239,0.9722309,467.01261,-9.3022517)">
      <path
         sodipodi:nodetypes="czsccc"
         id="path2495"
         d="M 160.09361,323.73714 C 160.09361,323.73714 160.28252,322.09211 160.37597,321.27823 C 160.46919,320.46644 159.69843,319.68022 158.74802,319.57109 C 157.16728,319.38957 153.21397,318.93561 151.63471,318.75426 C 148.62024,317.396 149.40969,314.42302 152.02636,312.3454 C 146.09422,311.66421 148.32318,304.32336 152.34946,304.7857"
         style="fill:none;fill-rule:evenodd;stroke:#000000;stroke-width:1.5412159;stroke-linecap:butt;stroke-linejoin:round;stroke-miterlimit:4;stroke-dasharray:none;stroke-opacity:1" />
      <path
         sodipodi:nodetypes="csscc"
         id="path2497"
         d="M 162.71062,323.99872 C 162.71062,323.99872 163.05991,320.95697 163.21798,319.58037 C 163.42504,317.77722 162.23116,315.84683 160.24728,315.61902 C 158.26123,315.39096 154.1,314.91312 154.1,314.91312 C 159.33704,311.17695 158.72844,306.74265 153.46393,305.53651"
         style="fill:none;fill-rule:evenodd;stroke:#000000;stroke-width:1.5412159;stroke-linecap:butt;stroke-linejoin:round;stroke-miterlimit:4;stroke-dasharray:none;stroke-opacity:1" />
    </g>
    <rect
       style="fill:#000000;fill-opacity:1;stroke:none;stroke-width:7.04500008;stroke-linejoin:round;stroke-miterlimit:4;stroke-dasharray:none;stroke-opacity:1"
       id="rect2499"
       width="53.216946"
       height="23.137802"
       x="334.50027"
       y="214.66095"
       ry="11.452628"
       transform="matrix(0.9934715,0.1140809,-0.1140809,0.9934715,0,0)" />
    <rect
       style="fill:#000000;fill-opacity:1;stroke:none;stroke-width:8.20300007;stroke-linejoin:miter;stroke-miterlimit:4;stroke-dasharray:none;stroke-opacity:1"
       id="rect2501"
       width="26.831341"
       height="67.526184"
       x="427.97369"
       y="134.45422"
       ry="13.415666"
       transform="matrix(0.8824995,0.4703134,-0.5189409,0.8548101,0,0)"
       inkscape:transform-center-x="-14.979673"
       inkscape:transform-center-y="-35.952311"
       rx="13.41567" />
    <rect
       style="fill:#000000;fill-opacity:1;stroke:none;stroke-width:8.20300007;stroke-linejoin:miter;stroke-miterlimit:4;stroke-dasharray:none;stroke-opacity:1"
       id="rect2503"
       width="26.831343"
       height="67.526192"
       x="213.73022"
       y="414.17184"
       ry="13.415668"
       transform="matrix(0.9758104,-0.2186187,0.1636929,0.9865113,0,0)"
       inkscape:transform-center-x="12.076539"
       inkscape:transform-center-y="-37.028565"
       rx="13.415671" />
    <rect
       style="fill:#000000;fill-opacity:1;stroke:none;stroke-width:8.20300007;stroke-linejoin:miter;stroke-miterlimit:4;stroke-dasharray:none;stroke-opacity:1"
       id="rect2505"
       width="26.831341"
       height="67.526215"
       x="-356.56509"
       y="-404.966"
       ry="13.41567"
       transform="matrix(-0.99952,3.0979795e-2,2.4978501e-2,-0.999688,0,0)"
       inkscape:transform-center-x="-4.8887783"
       inkscape:transform-center-y="38.640162"
       rx="13.41567" />
    <rect
       style="fill:#000000;fill-opacity:1;stroke:none;stroke-width:8.20300007;stroke-linejoin:miter;stroke-miterlimit:4;stroke-dasharray:none;stroke-opacity:1"
       id="rect2507"
       width="26.831348"
       height="67.526207"
       x="-348.33716"
       y="-447.64374"
       ry="13.41567"
       transform="matrix(-0.9986008,5.2882084e-2,3.0590841e-3,-0.9999953,0,0)"
       inkscape:transform-center-x="-5.7347068"
       inkscape:transform-center-y="38.523593"
       rx="13.415674" />
  </g>
</svg>
